# xmcd
#
# Track frame offsets:
#	150
#	19665
#	38855
#	56873
#	76403
#	93860
#	112752
#	133324
#	150432
#	166477
#	182930
#	204848
#	221153
#	239356
#	260950
#	279465
#
# Disc length: 3957 seconds
#
# Revision: 1
# Processed by: cddbd v1.5.2PL0 Copyright (c) Steve Scherf et al.
# Submitted via: audiograbber 1.83.01
#
DISCID=e20f7310
DTITLE=Various Artist - THM PL38
DYEAR=2003
DGENRE=karaoke
TTITLE0=Cher - (This Is) A Song For The Lonely
TTITLE1=Cher - All Or Nothing
TTITLE2=Cher - Strong Enough
TTITLE3=Celine Dion - A New Day Has Come
TTITLE4=Celine Dion - I'm Alive
TTITLE5=Celine Dion - That's The Way It Is
TTITLE6=Celine Dion - I Want You To Need Me
TTITLE7=Shakira - Underneath Your Clothes
TTITLE8=Shakira - Whenever Wherever
TTITLE9=Shakira - Objection (Tango)
TTITLE10=Alicia Keys - A Woman's Worth
TTITLE11=Alicia Keys - Fallin'
TTITLE12=Alicia Keys - How Come You Don't Call Me
TTITLE13=Alicia Keys - Why Do I Feel So Sad
TTITLE14=Kylie Minogue - Love At First Sight
TTITLE15=Kylie Minogue - Can't Get You Out Of My Head
EXTD=
EXTT0=
EXTT1=
EXTT2=
EXTT3=
EXTT4=
EXTT5=
EXTT6=
EXTT7=
EXTT8=
EXTT9=
EXTT10=
EXTT11=
EXTT12=
EXTT13=
EXTT14=
EXTT15=
PLAYORDER=
